<svg width="24" height="24" viewBox="0 0 24 24" fill="none" xmlns="http://www.w3.org/2000/svg">
<path d="M3 8.00004V16H8.0859L14 21.9141V2.08594L8.0859 8.00004H3ZM13 4.50004V19.5L8.793 15.2929L8.5 15H4V9.00004H8.5L13 4.50004ZM16.5731 10.2321C17.0413 10.7013 17.3043 11.3371 17.3043 11.9999C17.3043 12.6628 17.0413 13.2986 16.5731 13.7677L17.2802 14.4748C17.9356 13.8179 18.3037 12.9278 18.3037 11.9998C18.3037 11.0719 17.9356 10.1818 17.2802 9.52484L16.5731 10.2321ZM20.1086 6.69664L19.4016 7.40374C20.6187 8.62371 21.3023 10.2766 21.3023 11.9999C21.3023 13.7232 20.6187 15.3762 19.4016 16.5961L20.1086 17.3032C21.5131 15.8957 22.3019 13.9884 22.3019 12C22.3019 10.0116 21.5131 8.10432 20.1086 6.69674V6.69664Z" fill="#323232"/>
</svg>
