<svg width="28" height="28" viewBox="0 0 28 28" fill="none" xmlns="http://www.w3.org/2000/svg">
<path d="M3.5 9.33338V18.6667H9.43355L16.3333 25.5664V2.43359L9.43355 9.33338H3.5ZM15.1667 5.25004V22.75L10.2585 17.8417L9.91667 17.5H4.66667V10.5H9.91667L15.1667 5.25004ZM19.3353 11.9374C19.8815 12.4848 20.1884 13.2266 20.1884 13.9999C20.1884 14.7733 19.8815 15.515 19.3353 16.0623L20.1602 16.8873C20.9249 16.1209 21.3543 15.0824 21.3543 13.9998C21.3543 12.9172 20.9249 11.8788 20.1602 11.1123L19.3353 11.9374ZM23.46 7.81274L22.6352 8.63769C24.0551 10.061 24.8527 11.9894 24.8527 13.9999C24.8527 16.0104 24.0551 17.9389 22.6352 19.3621L23.46 20.1871C25.0986 18.545 26.0189 16.3198 26.0189 14C26.0189 11.6802 25.0986 9.45504 23.46 7.81286V7.81274Z" fill="#323232"/>
</svg>
