<svg width="24" height="24" viewBox="0 0 24 24" fill="none" xmlns="http://www.w3.org/2000/svg">
<path d="M19.5 11.9995C19.5 13.4829 19.0601 14.9329 18.236 16.1663C17.4119 17.3997 16.2406 18.361 14.8701 18.9286C13.4997 19.4963 11.9917 19.6448 10.5368 19.3554C9.08197 19.066 7.7456 18.3517 6.6967 17.3028C5.64781 16.2539 4.9335 14.9176 4.64411 13.4627C4.35472 12.0078 4.50325 10.4998 5.07091 9.12941C5.63856 7.75896 6.59986 6.58762 7.83323 5.76351C9.0666 4.9394 10.5166 4.49953 12 4.49953H15.0857L12.6757 6.91013L13.3827 7.61723L17 3.99953L13.3823 0.381836L12.6753 1.08893L15.0857 3.49953H12C10.3189 3.49953 8.67548 3.99805 7.27766 4.93204C5.87984 5.86603 4.79037 7.19355 4.14703 8.74672C3.50368 10.2999 3.33535 12.009 3.66333 13.6578C3.9913 15.3066 4.80085 16.8212 5.9896 18.0099C7.17834 19.1987 8.6929 20.0082 10.3417 20.3362C11.9906 20.6642 13.6996 20.4958 15.2528 19.8525C16.806 19.2092 18.1335 18.1197 19.0675 16.7219C20.0015 15.3241 20.5 13.6807 20.5 11.9995H19.5Z" fill="#323232"/>
</svg>
