<svg width="28" height="28" viewBox="0 0 28 28" fill="none" xmlns="http://www.w3.org/2000/svg">
<path d="M21.0123 6.98778C20.0936 6.06422 19.0009 5.332 17.7973 4.83351C16.5938 4.33501 15.3034 4.08012 14.0007 4.0836H10.4007L13.2123 1.27123L12.3875 0.446289L8.16732 4.66693L12.388 8.88758L13.2128 8.06263L10.4007 5.25027H14.0007C15.7313 5.25027 17.4229 5.76345 18.8619 6.72491C20.3008 7.68637 21.4223 9.05294 22.0846 10.6518C22.7469 12.2506 22.9202 14.0099 22.5825 15.7073C22.2449 17.4047 21.4116 18.9637 20.1878 20.1874C18.9641 21.4111 17.405 22.2445 15.7077 22.5821C14.0103 22.9198 12.251 22.7465 10.6522 22.0842C9.05332 21.422 7.68676 20.3005 6.72529 18.8615C5.76383 17.4225 5.25065 15.7309 5.25065 14.0002H4.08398C4.08396 15.6311 4.48615 17.2368 5.25492 18.6751C6.02368 20.1133 7.13531 21.3399 8.4913 22.2459C9.84731 23.1519 11.4058 23.7095 13.0288 23.8693C14.6518 24.0291 16.2892 23.7862 17.7958 23.1621C19.3026 22.538 20.632 21.5518 21.6666 20.2911C22.7011 19.0304 23.4088 17.5341 23.7269 15.9346C24.045 14.3351 23.9636 12.6818 23.4902 11.1212C23.0166 9.56061 22.1656 8.14088 21.0123 6.98778Z" fill="#323232"/>
</svg>
