<svg width="24" height="24" viewBox="0 0 24 24" fill="none" xmlns="http://www.w3.org/2000/svg">
<path d="M18.01 5.98883C17.2225 5.1972 16.2859 4.56959 15.2543 4.14231C14.2227 3.71502 13.1166 3.49655 12 3.49953H8.9143L11.3243 1.08893L10.6173 0.381836L7 3.99953L10.6177 7.61723L11.3247 6.91013L8.9143 4.49953H12C13.4834 4.49953 14.9334 4.9394 16.1668 5.76351C17.4001 6.58762 18.3614 7.75896 18.9291 9.12941C19.4968 10.4998 19.6453 12.0078 19.3559 13.4627C19.0665 14.9176 18.3522 16.2539 17.3033 17.3028C16.2544 18.3517 14.918 19.066 13.4632 19.3554C12.0083 19.6448 10.5003 19.4963 9.12987 18.9286C7.75943 18.361 6.58809 17.3997 5.76398 16.1663C4.93987 14.9329 4.5 13.4829 4.5 11.9995H3.5C3.49998 13.3974 3.84471 14.7737 4.50366 16.0065C5.1626 17.2393 6.11542 18.2906 7.2777 19.0672C8.43999 19.8438 9.77586 20.3217 11.167 20.4587C12.5581 20.5957 13.9616 20.3875 15.253 19.8525C16.5445 19.3176 17.684 18.4723 18.5708 17.3917C19.4575 16.3111 20.0641 15.0285 20.3368 13.6575C20.6094 12.2865 20.5397 10.8694 20.1339 9.53176C19.728 8.19411 18.9985 6.9772 18.01 5.98883Z" fill="#323232"/>
</svg>
