<svg width="28" height="28" viewBox="0 0 28 28" fill="none" xmlns="http://www.w3.org/2000/svg">
<path d="M22.7507 14.0002C22.7507 15.7309 22.2374 17.4225 21.276 18.8615C20.3145 20.3005 18.948 21.422 17.3491 22.0842C15.7503 22.7465 13.991 22.9198 12.2936 22.5821C10.5963 22.2445 9.03719 21.4111 7.81347 20.1874C6.58977 18.9637 5.7564 17.4047 5.41878 15.7073C5.08116 14.0099 5.25445 12.2506 5.91672 10.6518C6.57897 9.05294 7.70049 7.68637 9.13942 6.72491C10.5784 5.76345 12.27 5.25027 14.0007 5.25027H17.6006L14.789 8.06263L15.6138 8.88758L19.834 4.66693L15.6133 0.446289L14.7885 1.27123L17.6006 4.0836H14.0007C12.0394 4.0836 10.122 4.66521 8.49126 5.75486C6.86047 6.84452 5.58942 8.39329 4.83886 10.2053C4.08828 12.0174 3.8919 14.0113 4.27454 15.9349C4.65717 17.8585 5.60165 19.6256 6.98852 21.0124C8.37538 22.3993 10.1424 23.3437 12.066 23.7264C13.9897 24.1091 15.9835 23.9126 17.7956 23.1621C19.6077 22.4116 21.1564 21.1405 22.2461 19.5097C23.3357 17.8789 23.9173 15.9616 23.9173 14.0002H22.7507Z" fill="#323232"/>
</svg>
