<svg width="362" height="63" viewBox="0 0 362 63" fill="none" xmlns="http://www.w3.org/2000/svg">
<rect x="360" y="25" width="2" height="23" rx="1" fill="#323232"/>
<rect x="36" y="19" width="2" height="32" rx="1" fill="#323232"/>
<rect x="42" y="25" width="2" height="23" rx="1" fill="#323232"/>
<rect x="12" y="10" width="2" height="47" rx="1" fill="#323232"/>
<rect x="18" y="16" width="2" height="47" rx="1" fill="#323232"/>
<rect x="30" y="16" width="2" height="47" rx="1" fill="#323232"/>
<rect x="24" width="2" height="56" rx="1" fill="#323232"/>
<rect x="6" y="16" width="2" height="47" rx="1" fill="#323232"/>
<rect width="2" height="56" rx="1" fill="#323232"/>
<rect x="330" y="8" width="2" height="47" rx="1" fill="#323232"/>
<rect x="324" y="19" width="2" height="32" rx="1" fill="#323232"/>
<rect x="318" y="27" width="2" height="23" rx="1" fill="#323232"/>
<rect x="336" y="16" width="2" height="47" rx="1" fill="#323232"/>
<rect x="342" y="10" width="2" height="47" rx="1" fill="#323232"/>
<rect x="348" y="16" width="2" height="46" rx="1" fill="#323232"/>
<rect x="354" width="2" height="56" rx="1" fill="#323232"/>
<rect x="312" y="19" width="2" height="32" rx="1" fill="#323232"/>
<rect x="264" y="17" width="2" height="32" rx="1" fill="#323232"/>
<rect x="258" y="25" width="2" height="23" rx="1" fill="#323232"/>
<rect x="252" y="25" width="2" height="23" rx="1" fill="#323232"/>
<rect x="240" y="6" width="2" height="47" rx="1" fill="#323232"/>
<rect x="234" y="17" width="2" height="32" rx="1" fill="#323232"/>
<rect x="228" y="25" width="2" height="23" rx="1" fill="#323232"/>
<rect x="246" y="13" width="2" height="47" rx="1" fill="#323232"/>
<rect x="198" y="8" width="2" height="47" rx="1" fill="#323232"/>
<rect x="192" y="19" width="2" height="32" rx="1" fill="#323232"/>
<rect x="186" y="27" width="2" height="23" rx="1" fill="#323232"/>
<rect x="204" y="16" width="2" height="47" rx="1" fill="#323232"/>
<rect x="210" y="10" width="2" height="47" rx="1" fill="#323232"/>
<rect x="216" y="16" width="2" height="47" rx="1" fill="#323232"/>
<rect x="222" width="2" height="56" rx="1" fill="#323232"/>
<rect x="180" y="19" width="2" height="32" rx="1" fill="#323232"/>
<rect x="306" y="27" width="2" height="23" rx="1" fill="#323232"/>
<rect x="300" y="27" width="2" height="23" rx="1" fill="#323232"/>
<rect x="288" y="8" width="2" height="47" rx="1" fill="#323232"/>
<rect x="282" y="19" width="2" height="32" rx="1" fill="#323232"/>
<rect x="276" y="27" width="2" height="23" rx="1" fill="#323232"/>
<rect x="294" y="16" width="2" height="47" rx="1" fill="#323232"/>
<rect x="270" y="2" width="2" height="56" rx="1" fill="#323232"/>
<rect x="132" y="17" width="2" height="32" rx="1" fill="#323232"/>
<rect x="126" y="25" width="2" height="23" rx="1" fill="#323232"/>
<rect x="120" y="25" width="2" height="23" rx="1" fill="#323232"/>
<rect x="108" y="6" width="2" height="47" rx="1" fill="#323232"/>
<rect x="102" y="17" width="2" height="32" rx="1" fill="#323232"/>
<rect x="96" y="25" width="2" height="23" rx="1" fill="#323232"/>
<rect x="114" y="13" width="2" height="47" rx="1" fill="#323232"/>
<rect x="66" y="8" width="2" height="47" rx="1" fill="#323232"/>
<rect x="60" y="19" width="2" height="32" rx="1" fill="#323232"/>
<rect x="54" y="27" width="2" height="23" rx="1" fill="#323232"/>
<rect x="72" y="16" width="2" height="47" rx="1" fill="#323232"/>
<rect x="78" y="10" width="2" height="47" rx="1" fill="#323232"/>
<rect x="84" y="16" width="2" height="47" rx="1" fill="#323232"/>
<rect x="90" width="2" height="56" rx="1" fill="#323232"/>
<rect x="48" y="19" width="2" height="32" rx="1" fill="#323232"/>
<rect x="174" y="27" width="2" height="23" rx="1" fill="#323232"/>
<rect x="168" y="27" width="2" height="23" rx="1" fill="#323232"/>
<rect x="156" y="8" width="2" height="47" rx="1" fill="#323232"/>
<rect x="150" y="19" width="2" height="32" rx="1" fill="#323232"/>
<rect x="144" y="27" width="2" height="23" rx="1" fill="#323232"/>
<rect x="162" y="16" width="2" height="47" rx="1" fill="#323232"/>
<rect x="138" y="2" width="2" height="56" rx="1" fill="#323232"/>
</svg>
